<mxfile host="app.diagrams.net" modified="2023-12-11T02:56:06.920Z" agent="Mozilla/5.0 (Windows NT 10.0; Win64; x64) AppleWebKit/537.36 (KHTML, like Gecko) Chrome/118.0.0.0 Safari/537.36 Edg/118.0.2088.46" version="22.1.7" etag="xpn9fIHECjK50ZCDD8yr" type="github">
  <diagram name="第 1 页" id="ymd-I6UiKrEBjEIp_rei">
    <mxGraphModel>
      <root>
        <mxCell id="0" />
        <mxCell id="1" parent="0" />
      </root>
    </mxGraphModel>
  </diagram>
</mxfile>
